<?xml version="1.0" encoding="UTF-8" standalone="no"?>
<!DOCTYPE svg PUBLIC "-//W3C//DTD SVG 1.1//EN"
 "http://www.w3.org/Graphics/SVG/1.1/DTD/svg11.dtd">
<!-- Generated by graphviz version 2.38.0 (20140413.2041)
 -->
<!-- Title: paths Pages: 1 -->
<svg width="833pt" height="188pt"
 viewBox="0.00 0.00 833.39 188.00" xmlns="http://www.w3.org/2000/svg" xmlns:xlink="http://www.w3.org/1999/xlink">
<g id="graph0" class="graph" transform="scale(1 1) rotate(0) translate(4 184)">
<title>paths</title>
<polygon fill="white" stroke="none" points="-4,4 -4,-184 829.392,-184 829.392,4 -4,4"/>
<!-- Debian -->
<g id="node1" class="node"><title>Debian</title>
<ellipse fill="none" stroke="black" cx="82.9954" cy="-162" rx="36.2938" ry="18"/>
<text text-anchor="middle" x="82.9954" y="-158.3" font-family="Times,serif" font-size="14.00">Debian</text>
</g>
<!-- Ubuntu -->
<g id="node2" class="node"><title>Ubuntu</title>
<ellipse fill="none" stroke="black" cx="51.9954" cy="-90" rx="37.0935" ry="18"/>
<text text-anchor="middle" x="51.9954" y="-86.3" font-family="Times,serif" font-size="14.00">Ubuntu</text>
</g>
<!-- Debian&#45;&gt;Ubuntu -->
<g id="edge1" class="edge"><title>Debian&#45;&gt;Ubuntu</title>
<path fill="none" stroke="black" d="M75.4912,-144.055C71.9118,-135.973 67.5491,-126.121 63.5591,-117.112"/>
<polygon fill="black" stroke="black" points="66.6801,-115.515 59.4305,-107.789 60.2796,-118.35 66.6801,-115.515"/>
</g>
<!-- SteamOS -->
<g id="node3" class="node"><title>SteamOS</title>
<ellipse fill="none" stroke="black" cx="150.995" cy="-90" rx="44.393" ry="18"/>
<text text-anchor="middle" x="150.995" y="-86.3" font-family="Times,serif" font-size="14.00">SteamOS</text>
</g>
<!-- Debian&#45;&gt;SteamOS -->
<g id="edge2" class="edge"><title>Debian&#45;&gt;SteamOS</title>
<path fill="none" stroke="black" d="M98.0868,-145.465C106.942,-136.349 118.306,-124.651 128.231,-114.434"/>
<polygon fill="black" stroke="black" points="131.017,-116.589 135.475,-106.977 125.996,-111.711 131.017,-116.589"/>
</g>
<!-- Linux Mint -->
<g id="node4" class="node"><title>Linux Mint</title>
<ellipse fill="none" stroke="black" cx="51.9954" cy="-18" rx="51.9908" ry="18"/>
<text text-anchor="middle" x="51.9954" y="-14.3" font-family="Times,serif" font-size="14.00">Linux Mint</text>
</g>
<!-- Ubuntu&#45;&gt;Linux Mint -->
<g id="edge3" class="edge"><title>Ubuntu&#45;&gt;Linux Mint</title>
<path fill="none" stroke="black" d="M51.9954,-71.6966C51.9954,-63.9827 51.9954,-54.7125 51.9954,-46.1124"/>
<polygon fill="black" stroke="black" points="55.4955,-46.1043 51.9954,-36.1043 48.4955,-46.1044 55.4955,-46.1043"/>
</g>
<!-- Red Hat Enterprise -->
<g id="node5" class="node"><title>Red Hat Enterprise</title>
<ellipse fill="none" stroke="black" cx="259.995" cy="-162" rx="78.7863" ry="18"/>
<text text-anchor="middle" x="259.995" y="-158.3" font-family="Times,serif" font-size="14.00">Red Hat Enterprise</text>
</g>
<!-- Fedora -->
<g id="node6" class="node"><title>Fedora</title>
<ellipse fill="none" stroke="black" cx="247.995" cy="-90" rx="35.194" ry="18"/>
<text text-anchor="middle" x="247.995" y="-86.3" font-family="Times,serif" font-size="14.00">Fedora</text>
</g>
<!-- Red Hat Enterprise&#45;&gt;Fedora -->
<g id="edge4" class="edge"><title>Red Hat Enterprise&#45;&gt;Fedora</title>
<path fill="none" stroke="black" d="M257.029,-143.697C255.707,-135.983 254.118,-126.712 252.643,-118.112"/>
<polygon fill="black" stroke="black" points="256.067,-117.369 250.928,-108.104 249.168,-118.552 256.067,-117.369"/>
</g>
<!-- Centos -->
<g id="node7" class="node"><title>Centos</title>
<ellipse fill="none" stroke="black" cx="335.995" cy="-90" rx="35.194" ry="18"/>
<text text-anchor="middle" x="335.995" y="-86.3" font-family="Times,serif" font-size="14.00">Centos</text>
</g>
<!-- Red Hat Enterprise&#45;&gt;Centos -->
<g id="edge5" class="edge"><title>Red Hat Enterprise&#45;&gt;Centos</title>
<path fill="none" stroke="black" d="M278.006,-144.411C288.179,-135.041 301.023,-123.211 312.037,-113.067"/>
<polygon fill="black" stroke="black" points="314.684,-115.387 319.668,-106.038 309.941,-110.239 314.684,-115.387"/>
</g>
<!-- SUSE Enterprise -->
<g id="node8" class="node"><title>SUSE Enterprise</title>
<ellipse fill="none" stroke="black" cx="439.995" cy="-162" rx="70.6878" ry="18"/>
<text text-anchor="middle" x="439.995" y="-158.3" font-family="Times,serif" font-size="14.00">SUSE Enterprise</text>
</g>
<!-- OpenSUSE -->
<g id="node9" class="node"><title>OpenSUSE</title>
<ellipse fill="none" stroke="black" cx="439.995" cy="-90" rx="51.1914" ry="18"/>
<text text-anchor="middle" x="439.995" y="-86.3" font-family="Times,serif" font-size="14.00">OpenSUSE</text>
</g>
<!-- SUSE Enterprise&#45;&gt;OpenSUSE -->
<g id="edge6" class="edge"><title>SUSE Enterprise&#45;&gt;OpenSUSE</title>
<path fill="none" stroke="black" d="M439.995,-143.697C439.995,-135.983 439.995,-126.712 439.995,-118.112"/>
<polygon fill="black" stroke="black" points="443.495,-118.104 439.995,-108.104 436.495,-118.104 443.495,-118.104"/>
</g>
<!-- Archlinux -->
<g id="node10" class="node"><title>Archlinux</title>
<ellipse fill="none" stroke="black" cx="574.995" cy="-162" rx="46.2923" ry="18"/>
<text text-anchor="middle" x="574.995" y="-158.3" font-family="Times,serif" font-size="14.00">Archlinux</text>
</g>
<!-- Slackware -->
<g id="node11" class="node"><title>Slackware</title>
<ellipse fill="none" stroke="black" cx="686.995" cy="-162" rx="47.3916" ry="18"/>
<text text-anchor="middle" x="686.995" y="-158.3" font-family="Times,serif" font-size="14.00">Slackware</text>
</g>
<!-- Gentoo -->
<g id="node12" class="node"><title>Gentoo</title>
<ellipse fill="none" stroke="black" cx="788.995" cy="-162" rx="36.2938" ry="18"/>
<text text-anchor="middle" x="788.995" y="-158.3" font-family="Times,serif" font-size="14.00">Gentoo</text>
</g>
</g>
</svg>
